<svg baseProfile="tiny" xmlns="http://www.w3.org/2000/svg" width="232" height="160"><g fill="#9B9B9B"><path d="M123 41c0-.4.3-.6.2-.8-.2-.1.1-.4-.1-.5-.4.3 0-.3-.3-.3-.5.5-1.1 1.2-1.5 1.8-1.7 2.7-3.1 5.4-4.1 8.3-.2.4-.4.8-.5 1.2-.2.2-.2.6-.3.9.1.3-.1.4-.1.7-.2 0-.1.4-.2.2-.1 0 .1.4-.1.6 0 .2-.2.1-.2.2.2.1-.3.1 0 .2.1.1-.1.3-.1.4-.1-.2-.1.2-.2.3 0 0 .1 0 .1.1-.2.2 0 .2 0 .4-.1 0 0 .1-.1 0 0 0 0-.1-.1-.1.1.1-.2.7-.2.7h.2s.3-.2-.3.6c0-.1-.1-.2-.1 0 .1.3-.3.4-.1.5-.1.2 0 .6-.3.7 0 .1.1 0 .1.1-.3 1.3-.4 1.3-.4 1.3s.2.2 0 .3c-.1-.1-.1.3-.1.1.1.2-.1.4 0 .6l-.1.1c-.1.3 0 .7-.3.9.1.2-.1.5 0 .6-.2.2-.1.5-.3.8v.3c-.1.5-.1 1-.2 1.6 0 .1-.1.3-.2.3-.1.4-.1 1.2-.3 1.8.1.4 0 .8-.1 1.2h.1s.1 0 0 .1c-.3-.1 0 .2-.2.2h.1c-.3.2.1.5-.1.6-.1.4-.2.8-.2 1 .1.1-.1.2 0 .2s0 .1 0 .1c-.1.2-.2.5 0 .6.2-.1-.1 0-.1-.2.1 0 .1-.1.2-.2-.3-.3.5-.4 0-.6.1-.1.1.1.2.1.1-.2-.1-.3-.1-.5.4-.2.3-.4.4-.8-.2-.2.2-.3.2-.4-.5-.2.3-.4.1-.7 0-.1.2-.3 0-.1.1-.1-.1-.3.1-.3 0-.2.1-.4.1-.6.2-.1-.1-.4.1-.5-.1-.1-.2-.3 0-.3.1 0 .1-.2 0-.3.3-.6.3-1.2.4-1.7.1-.1.1-.4.1-.5 0-.9.5-1.7.6-2.5.1-.2 0-.5.3-.4-.3.6-.3 1.3-.5 1.9.1.2-.1.9-.2 1.2-.1.1-.1.3 0 .4-.1.3-.3.4-.1.7-.1.1.2.5-.1.7-.2.7-.4 1.4-.4 2.2.1-.1 0-.1.1-.1s.1.1 0 .2c-.1 0 0 .5-.2.2-.2.4-.1.7-.2 1.1.2.3-.3.4-.1.7 0 .2-.2.4-.2.6 0 .2.1 0 .1 0 .1-.1.1.1.1.1 0-.1.1-.1.1-.3 0-.1-.1-.2-.1 0h-.1v-.1c0-.1.2-.4.2-.2.1-.3.3-.9.3-1.3 0 0 .1 0 .1-.1-.1-.3.3-.5.2-.8 0 0 0-.2.1-.3-.1.1-.1-.1-.1-.1.3-.1.1-.4.3-.6.1.6-.2 1.2-.2 1.7 0-.3.1-.4.1-.7.1-.1.1-.2.1-.4.2-.2.1-.4.2-.6.1-.1.1-.3.1-.3s-.1 0-.1-.1c.1 0 0-.4.1-.2.1-.1-.2-.4.1-.5-.1-.4.4-.7.2-1.1 0-.2.1-.5.1-.8.2-.1 0-.4.2-.2-.2 1.1-.3 2-.6 3 .2-.1.1-.3.2-.3-.1-.4.1-.4.1-.6 0-.1-.1-.1 0-.2.1 0 0 0 0-.1.2-.3.1.1.2.1v-.1s.1-.2.1-.1c-.2.6.1-.2 0-.1-.2.1-.3 0-.3-.2-.1-.3.1-.3.3-.5.1.1 0 .2 0 .3.1-.2.1-.5.3-.6-.2 0 0-.3-.3-.3-.1 0-.1-.1 0-.2.2-.1 0 .1.1.2.1-.3.1-.2.2-.5-.1-.1 0-.2 0-.3 0-.2.2-.4.3-.6 0-.2-.3-.1-.4 0-.1-.1 0-.1 0-.2.1-.1.4 0 .2-.1.1-.1.3-.1.3-.3-.2-.3.1-.3 0-.6h.1v.1c.1-.1.1-.3.1-.3-.3-.2.2-.1.2-.3 0-.1-.1 0 0 0-.1 0-.1.1-.1.1 0-.3.1-.7.3-1 0 .2.3-.4 0-.1v-.2c0-.3.1.2 0-.2h.2c-.1-.2.3-.5 0-.4-.2-.2.1-.1.1-.2.1-.2.1-.4.1-.5-.1 0 0-.1 0-.1.1-.4.1-.2-.1-.1-.1-.1 0-.1 0-.2.5-.1.3-.7.5-.9-.1-.1.2 0 .1-.2-.1-.1.2-.2 0-.1-.1-.1 0-.2.1-.2v.1c.1-.2.1-.3.2-.5-.1.1-.1.1-.1.2-.2-.4.6-.3.1-.4 0-.1.2-.2.1-.3 0 0 .1-.2.2 0 0 .1-.2.5 0 .2.2-.2.1-.5.3-.6-.2-.1-.1.2-.3.3.1-.1-.2-.2 0-.2 0 0 .1-.1 0-.1 0 0 .1-.3.3-.1.3-.3 0 .1-.1-.2-.1-.2.2-.3.3-.4 0 0-.1 0-.1-.1.1-.1.2-.1.2-.1.1-.2.1-.2.1-.4.4-.8.7-1.8 1.1-2.7-.1.1-.1.3-.3.4-.1-.1.1-.2.1-.4.4-.8.6-1.7 1.1-2.4.5-1.1.8-2.2 1.4-3.3 0-.1.2-.3.2-.3.1-.1 0 0-.2.1.1-.4.6-1.2.4-1.1-.1.1-.1.2-.2.3 0-.2.3-.6.2-.9.3-.4 0-.8.3-1.2-.1 0-.2-.1-.2-.3.3.5.6 0 .4.2m-9.7 23.1l.1.2c-.1 0-.1-.1-.1-.2zm1.6-7.8s.1 0 .1.1-.1 0-.1-.1zm-1.4 12.5c0 .1 0 .1 0 0zm.1-.6v0zm.8-2.4v.1s-.1 0 0-.1zm.1-.8v0zm3.3-11.2c0-.1.1-.1.2-.2-.1.1-.1.2-.2.2.1.1.1.1 0 .1s-.1-.1 0-.1zm-.5 1.1s0 .1 0 0c-.1.1 0 .1 0 0zm-.1.3c-.1.1 0 0 0 0zm-.3.2v.1c0 .1-.1.1 0-.1zm-.4.6s.1.1 0 .1V56zm-.2-.3c-.1.1 0 0 0 0zm0 1.9v-.1.1zm-.1 3c.1.1 0 .1 0 .1v-.1zm-.2-.6c.1 0 .1 0 0 0 0 .1 0 0 0 0zm0-.9v0zm-.1-2.3c.1.1-.1.4-.1.2.1 0 0-.1.1-.2zm-.4.9c.1-.1.3-.2.2.1 0 0-.1 0-.1.1s0-.2-.1-.2zm.1 1.7v.2s-.1 0 0-.2zm-.1.5s0-.1 0 0c0-.1 0-.1 0 0 0-.1 0 0 0 0 0 .1 0 0 0 0zm0-1.2c0 .1-.1.2-.1.3v0c0-.1.1-.2.1-.3zm-.1-.5s-.1 0 0 0c-.2-.2 0-.2 0 0zm-.1 1.9c.2 0 .2.1 0 0 0 .2 0 0 0 0zm-.7 4.4s0 .1 0 0zm0-.3c.1 0 .1 0 0 0zm.3-.9c0 .1-.2.3-.1.5h-.1c-.2-.1.2-.2 0-.3.2 0-.1-.1.2-.2-.1-.1-.1 0-.1-.1 0 0 .1 0 .1.1zm0-.5c0-.3 0-.1.1-.4 0 .2 0 .3-.1.4zm.1-.6s0-.1.1-.1c-.1 0 0 .1-.1.1zm.2-1.7c0-.1.1-.1.2-.1v-.1.1c0 .2 0 .4-.2.3-.1-.1.2-.1 0-.2zm.4 3c0 .1 0 .3-.2.2-.1-.1.1-.4.2-.2zm.1-.8v-.1.1zm0 .2c.1 0 .1 0 0 0 .1 0 .1.1 0 0zm.1-.2s0 .1 0 0c0 .1 0 .1 0 0zm-.4 0c-.1 0 .1-.3-.2-.2 0 .2-.1.1-.1 0s.1 0 .2-.1c-.1-.2.3-.3.1-.4.2 0 .1-.4.2-.6 0-.1.1-.4.2-.6-.1.6-.2 1.4-.4 1.9zm.5-4.8s-.1.1 0 0c-.1.1-.1.1 0 0-.1.1-.1.1 0 0-.1 0 0 0 0 0zm0 2.5v0zm.3.6c-.2.1-.1.3-.2.3-.2-.1.1-.1 0-.3h.2c-.1-.2-.1-.2 0-.1.1-.1 0 .1 0 .1zm.3-.9c-.1 0-.1.2-.2.2 0-.1.1-.2 0-.3-.1.1-.1.1-.1.2 0-.1.1-.2 0-.3.3.1 0-.2.2-.2.1.1 0 .3.1.4zm0-2c-.3 0 .1-.3 0-.4.3.1 0 .2 0 .4zm.2-3.4v-.1c-.1 0 0 0 0 .1zm.2 3c.2 0 0 .1 0 .2-.1.1 0-.1 0-.2zm.1.9c-.1 0-.1.1 0 0v.2c-.1-.1-.1-.1 0-.2-.1.1-.1 0 0 0zm0-1.2s0-.1.1-.1c0 .1 0 .1-.1.1zm.2-.7s0 .1 0 0zm.2.3c0-.1 0 0 0 0 0-.1 0-.1 0 0 0-.1 0 0 0 0zm0-.7c0 .1-.3.2-.2.2-.1-.1-.1.1-.2.1.1 0 .1.2 0 .2s0 .1 0 .1c0 .1.2-.1.1.1-.1.1-.2 0-.3.1.1-.2-.1-.4.1-.5.1-.2.3-.2.5-.3-.1-.2 0-.3.1-.2-.2 0 0 .2-.1.2zm0-.4c0 .1 0 .1 0 0zm.1-.6c-.1-.1 0-.4.2-.5v.1l.3-.3c0 .6-.5.3-.5.7zm0 1.3v-.1c.1.1 0 .1 0 .1zm.1-1v-.3.3zm.2.4c.1 0 0 .1 0 .1s-.2.1-.1 0c0 0 0-.1.1-.1 0 0-.1-.2 0-.2.1.1-.1 0 0 .2zm0-.6h.1c0-.1 0 0-.1 0zm.1-1.7s0-.1.1-.1c0 .1-.1 0-.1.1zm1.1-1.6s0 .1 0 0zm-.5 1.4c.1-.1.2-.3.3-.1-.1.1-.2.1-.3.1zm.3-.4c.1-.1.1-.3.2-.5 0 .2 0 .4-.2.5zm.3-.7s-.1-.1 0 0zm.1-.2s-.1-.1 0-.1v.1zm.4-1.3c-.1.1-.1 0 0 0z"/><path d="M118.6 54c-.1.2 0-.1 0 0 .2.1.1-.1 0 0M116.9 56.9c0-.1.1-.2.1-.3 0 0-.1.2-.1.3M114.6 57.2v.2c.1 0 0-.2 0-.2M113.9 60.7v0M113.7 61.6v-.2c-.1.1 0 .2 0 .2M113.3 63.4c.1-.1.1-.3.1-.3s-.1.2-.1.3M115.7 63.8c0-.1-.1.5 0 0 0 .1.1.1 0 0M113.3 63.8v-.1c.1-.4-.1.2 0 .1M114.2 64.3s-.1.1-.1.2c.1-.1.2 0 .1-.2M115.2 65.1v-.2.2M115.3 65.1c0-.1.1-.1 0-.1.1 0 .1 0 0 .1M115.2 65.6c.1 0 .1-.1 0 0 0 0-.3-.1 0 0M115 65.9l.1-.1c0 .1 0 0-.1.1M115 65.9c-.1.1 0 .1-.1.2.1-.1 0-.1.1-.2M113.3 68.1v-.2.2M113.9 68.3l.1-.1c0-.2-.1 0-.1.1M112.6 68.5c.1 0 0-.2 0-.3-.1 0 0 .1 0 .3M113 69.7c0-.1-.1 0-.1 0 0-.1.1-.1.1 0M113.2 70.1c-.1 0-.1 0 0 0-.1.1-.1.2 0 0M112.9 76.1s.1 0 0 0c.1 0 0 0 0 0M112.6 70.5c.1-.1 0-.1 0-.2v.2M114.2 71.9c-.1 0-.2-.1-.2 0 0-.1-.2-.1-.2-.1h-.2c-.1-.2-.3 0-.6 0 0 .1 0 .1-.1.1.1.3-.4 0-.5.2-.1-.2-.3.2-.4-.1-.1.1-.3.2-.4.4-.3-.1 0 .2-.3.1-.6.3-.2 1-.9 1.3 0 .1 0 .2.1.3.3.1.4.4.4.6.4.2.2.7.6.9-.1.5.3-.3.4.2.4.2-.1.3 0 .6.1 0 .3.2.2 0 .4.4.1-.4.4-.4v-.1c.3-.1.2-.2.1-.4.4 0 .2.6.3.6.1.1.2-.4.3-.5 0 .1.1.2.2.1 0-.2.6-.5.3-.6.5-.2-.1-.8.4-1.1.1.1.2-.1.3-.2.1-.3-.2-.3-.2-.6.3-.4-.2-.8 0-1.3m-1.5 3.5c-.1-.3.1-.6.2-.1-.1 0-.1.1-.2.1z"/><path fill-rule="evenodd" d="M115.2 63c0 .2-.1.3-.1.4h.2c0-.2.1-.4.1-.6h-.1c0 .2-.1.2-.1.2M114.5 62.7h-.1c0 .1 0 .2-.1.3 0 .1-.1.2-.1.3h.2c0-.1.1-.1.1-.2-.1-.1-.1-.3 0-.4M114.1 66.9c0 .2-.1.3-.2.4h.2c0-.2 0-.3.1-.5 0 .1-.1.1-.1.1M113.3 67.2c.1 0 .2 0 .3.1 0-.1.1-.2.1-.3.1.2.1 0 .1-.1-.1 0-.2 0-.3-.1.2.2-.1.3-.2.4M114.7 63.3h.1s-.1 0-.1.1h.1v-.1c.1-.1 0-.1-.1 0M115.4 63.5h.2c0-.1-.1 0-.2 0"/><path fill-rule="evenodd" d="M129.5 55.2c.7-2.2-1.5-3.9-3.2-5 .1-.4 0-1.3-.2-1.8-1-2.4-4-4.2-6.9-4.8-.3-.1-.7-.1-1.1-.2-.5-.1-.8-.1-1.5-.1-1.7.1-3.7.7-4.3 2.4-1.9 0-4.4.1-5.8 1.6-.8.9-.8 1.7-.5 2.6-1.2.4-2.9 1.1-3.1 2.6-.1 1 .7 1.6 1.3 2.3-.2.1-.3.2-.5.3-.6.4-1.2 1-1.1 1.8-.1 1.5 1.3 2.5 2.4 3.2-.3.2-.6.8-.7 1.2 0 2.1 1.8 3 3.1 3.9.9 2.1 3.2 3.1 5.2 3.6v-.4h-.1c0 .1 0 .1-.1.1v-.1c-1.8-.5-3.7-1.5-4.4-2.9 1.5.7 3.2 1.3 4.8 1.7 0-.1 0-.1.1-.1V67h-.1v-.3c-2-.4-3.2-1-4.8-1.7.2-.9 1.2-1.1 2.3-1 .5 0 2.3.2 3.7.8 1 .4 2 1 2 1.5 0 .4-.4.5-.4.5.1.2.3.1.6 0 .4-.1.8-.6.5-1.2-.9-1.7-3.9-2.5-5.8-2.6-.7 0-1.3 0-1.9.2-.6.2-1.2.6-1.5 1.2l-.1.3c-1.2-.7-2.4-1.6-2.6-2.7-.1-.9.8-1.3.8-1.3s.6.3 2 .8c1.9.7 3.8 1.3 5.8 1.7 0-.2.1-.4.1-.6-.1 0-.3-.1-.4-.1-4.6-1.1-6.7-2.2-6.7-2.2.1 0 .5-.1.7-.2 2.1-.4 4.4 0 6.5.5 2.1.5 4.3 1.5 6.2 2.7-1.2 0-2.2 0-4.1-.4-.1.1 0 .1-.1.3-.1-.1.1-.3-.1-.2-.1.1-.1.2 0 .2.2-.1.1.2.2.2 1.7.3 3.3.4 4.7.4.6.7 1.2 1.5 1.2 2.5-2.2.7-4.3 1-7.3.5v.1c0 .1 0 .2-.1.4.1 0 .2 0 .4.1 2.1.3 4.4.5 6.7-.3-1.6 1.7-5 1.8-7 1.5-.2 0-.4-.1-.7-.1 0 .2-.1.3-.1.4.4.1.8.1 1.2.2 1.7.2 6.1.1 7.7-2.5 1.6-.6 3.6-1.6 3.8-3.6 1.1-.6 2.5-1.6 2.9-2.9.3-1.2-.1-2.3-.7-3.2.5-.5.9-1 1.1-1.7m-12.9-10.7c4 .1 8.3 2.1 9 5.1-3.6-2.1-7.5-3.4-11.8-3.8h-.6c.6-1.1 2.7-1.3 3.4-1.3zm-9.9 4.1c.5-1.1 3.1-1.4 4.2-1.5h1.5s.1.2.3.4c1 1.3 2.8 1.9 4.3 2.2.1-.1.2-.1.2-.2-1.4-.3-3.2-1-3.9-2.4 4.4.4 8.5 1.6 12.1 3.9-.4.8-1.5 1.5-2.3 1.8-.9-.4-4.5-2.1-7.6-2.7-3.1-.6-6.2-.8-8.4-.3h-.2c-.2.1-.5-.4-.2-1.2zm-2.9 4.5c-.1-.8.6-1.3 1.2-1.6.6-.3 1.2-.4 1.9-.5 0 0 .5.5 1.2.9 1.6 1.1 4.6 2 7.4 2.4 0 0 0-.1.1-.2s-.1-.1-.1-.1.1-.1.1-.2c-.8-.1-1.8-.3-2.9-.5-1.4-.3-3.5-1.2-5.1-2.3 4.6-.5 9 .7 12.9 2.3l.7.3c-.6.2-1.4.4-2.8.4v.1c.1.2.4-.1.1.2-.1-.2-.3.1-.3.1.1 0 0 0 0 .1h.1s.1-.1.1 0c1.7-.1 2.9-.4 3.5-.6 0 0 1.7 1 2.4 1.4.9.5 1.7 1.1 2.5 1.9-1 .7-2.3.9-3.4 1.3-3-2.3-7.4-3.4-9.8-3.9-2.4-.5-6.2-.7-8.7.1-.5-.4-.9-1-1.1-1.6zm17.6 10.2c-2.4-2.3-6.4-3.7-8.6-4.1-3.1-.5-5.6-.5-7.3.6-1-.6-2.3-1.5-2-2.8.5-1.2 2.2-1.3 2.2-1.3s2.8 1.8 8.2 3c.2 0 .3.1.5.1 0-.1 0-.1.1 0 .2-.1 0-.3 0-.3l.1-.1c-3-.6-5.7-1.6-8.2-2.8 2.7-.5 5.6-.1 8.2.5 2.6.6 5.4 1.7 7.1 2.7-1.5.1-3.1.1-4.6-.1v.1h-.2v.3c2.5.3 4.2.2 5.5 0 1.2.7 2.8 2 3 3.5-.7.4-2.7.6-4 .7zm3.6 1.2c-.7.9-1.6 1.3-2.5 1.7.2-.8-.1-1.6-.6-2.3 1.3-.1 2.9-.4 3.5-.6-.1.5-.2.8-.4 1.2zm3.1-4c-.3.7-1 1.4-2 1.9-.2-1.3-1-2.7-2-3.5.8-.2 2.2-.6 3.2-1.2.6.7 1.3 1.8.8 2.8zm-.2-4c-1.2-1.4-2.8-2.4-4.3-3.3.8-.4 1.7-1 2.2-1.8 1 .6 2.7 1.8 2.9 3.2.1.8-.2 1.5-.8 1.9z"/><path fill-rule="evenodd" d="M113.4 68.5c-.1 0-.2 0-.3-.1 0 .1-.1.1-.2.1 0 .1.1.2.2.3.1 0 .2 0 .3.1v-.1c-.1-.1-.1-.2 0-.3M113.4 69c0-.1 0-.1 0 0M113.5 68.8c0 .1 0 .1 0 0"/><path d="M38 82.9c-.9 2-3.4 7.7-4.9 11.4 0-.1-.2-.4-.2-.5.7-1.9 3.6-8.1 4.3-11.2.3-1.2 0-1.8-1.7-2.1-.3 0-.2-.3 0-.2.8.1 2.3.1 2.7.1.7 0 2 0 2.5-.1.2 0 .2.2 0 .2-1 .2-1.8.3-2.7 2.4m-5.7 14c0 .2-.2.2-.2 0-.2-.7-.5-1.2-1-2.7-.5-1.4-4.1-10.8-4.5-11.7-.6-1.4-1.2-1.9-2.2-2-.2 0-.2-.3 0-.2.9.1 2.1.1 2.6.1s1.9-.1 2.7-.1c.2 0 .3.2 0 .2-1.1.1-1.6.6-1.2 1.9.1.4 4 10.2 4.4 11.4 0 .1.2.4.2.5-.3.7-.6 1.8-.8 2.6zM43.6 96.5c-.6-.1-1.5-.1-1.8-.1-.3 0-1.1 0-1.7.1-.1 0-.2-.1 0-.2.9-.1 1.1-.3 1.1-3.7v-3.8c0-3.2-.1-3.3-1.1-3.5-.2 0-.2-.2 0-.2.6.1 1.4.1 1.7.1.3 0 1.3 0 1.8-.1.2 0 .2.1 0 .2-1 .2-1.2.3-1.2 3.4v3.8c0 3.3.2 3.5 1.2 3.6.2.3.2.4 0 .4M55.4 96.6c-1.9 0-2.8-1.3-5.2-5.6h-.4c-.2 0-.5 0-.6-.1v-.2c.1 0 .3.1.6.1 1.5 0 2.7-.6 2.7-2.5 0-1.7-.6-2.8-2.2-2.8v-.2c2.5 0 3.5 1.2 3.5 2.9 0 1.3-.8 2.2-2.2 2.6 1.3 2.5 3.3 5.5 4.3 5.5.2 0 .3-.1.5-.2s.3 0 .1.1c-.2.2-.6.4-1.1.4m-5.1-.1c-.7-.1-1.4-.1-1.8-.1-.3 0-1.2.1-1.7.1-.2 0-.2-.1 0-.2 1-.1 1.1-.3 1.1-3.7v-3.8c0-3.2-.2-3.3-.9-3.5-.2 0-.1-.2 0-.2.4.1.9.1 1.2.1.4 0 1.5-.1 2-.1v.2c-.4 0-1 .1-1.1.1.1.4 0 1.6 0 2.4v4.8c0 3.3.2 3.5 1.2 3.7.2.1.2.2 0 .2zM66.4 88c0 .2-.1.2-.2 0-.1-1.8-.9-2.2-2.2-2.3h-1.4v-.2h1.5c.8 0 1.9-.1 2.4-.2.1-.1.2 0 .1.1s-.2 1.1-.2 2.6m-5-2.3H60c-1.2 0-1.9.4-2.3 2.1 0 .2-.2.1-.2 0 .2-.8.2-2.1.2-2.4-.1-.1.1-.2.2-.1.4.1 1.2.3 2.1.3h1.5c-.1 0-.1.1-.1.1zm2.7 10.8c-.6-.1-1.9-.1-2.1-.1-.3 0-1.3 0-2 .1-.1 0-.2-.1 0-.2 1.2-.2 1.5-.3 1.5-3.7v-7-.2h1.2v.2c-.1.8 0 5.6 0 7 0 3.4.2 3.4 1.5 3.7 0 .1 0 .2-.1.2zM78.7 88.3v.7h-.2v-.7c-.1-2.2-.5-2.6-1.6-2.8-.2 0-.1-.2 0-.2.6.1 1.2.1 1.7.1s1 0 1.7-.1c.1 0 .1.1 0 .2-1.2.2-1.6.9-1.6 2.8m-4.4 8.4c-3.1 0-4.3-1.9-4.4-3.8-.1-1.5-.1-2.5-.1-4 0-3.2 0-3.3-.9-3.5-.2 0-.1-.2 0-.2.7.1 1.2.1 1.5.1.5 0 1.4 0 1.9-.1.1 0 .2.1 0 .2-1.1.2-1.3.3-1.4 3.4v3.6c.1 1.9 1 3.8 3.6 3.8 2.5 0 3.8-1.8 3.8-4.3v-3h.2V92c.2 3-1.6 4.7-4.2 4.7zM88.5 96.5v-.2c2.1-.5 3.4-2.5 3.4-4.6 0-3.4-2.2-6.3-4.6-6.3h-.4v-.2h.6c3.3 0 5.8 2.6 5.8 5.7-.1 2.8-2.1 5.1-4.8 5.6m-.8.1c-3.3 0-5.8-2.6-5.8-5.7 0-3 2.2-5.3 4.9-5.7v.2c-2.4.3-3.6 2.4-3.6 4.6 0 3.4 2 6.3 4.6 6.3.2 0 .5 0 .6-.1v.2c-.1.1-.5.2-.7.2zM101.9 87.6c-.3-1-.6-2.1-2.1-2.1-.4 0-.8.1-1.1.2 0-.1-.1-.1-.1-.2.4-.2 1-.3 1.4-.3.6 0 1.1.1 1.6.3 0-.1.2-.1.2.1 0 0 .1 1.4.2 2 .1.1 0 .2-.1 0m-1.7 8.7c0-.1-.1-.1-.1-.2.7-.3 1.1-.9 1.1-1.8 0-1.3-.6-2-1.7-2.6-.3-.2-.9-.5-1.2-.7-1.1-.7-1.6-1.7-1.6-2.6 0-1.5 1.2-2.5 1.9-2.8 0 .1.1.1.1.2-.7.3-1 .9-1 1.8 0 .8.3 1.5 1.2 2.1.3.2 1.1.7 1.5.9 1.3.7 1.9 1.8 1.9 2.8 0 .8-.4 2.1-2.1 2.9zm-1.6.3c-.9 0-1.5 0-2.3-.4-.1.2-.3 0-.2-.1l-.3-2.5c0-.1.1-.2.2 0 .4 1.7 1 2.8 2.6 2.8.5 0 1.2-.1 1.5-.3 0 .1.1.1.1.2-.3.1-.9.3-1.6.3zM111.9 96.5v-.2c2.1-.5 3.4-2.5 3.4-4.6 0-3.4-2.2-6.3-4.6-6.3h-.4v-.2h.6c3.3 0 5.8 2.6 5.8 5.7-.1 2.8-2.1 5.1-4.8 5.6m-.8.1c-3.3 0-5.8-2.6-5.8-5.7 0-3 2.2-5.3 4.9-5.7v.2c-2.4.3-3.6 2.4-3.6 4.6 0 3.4 2 6.3 4.6 6.3.2 0 .5 0 .6-.1v.2c-.1.1-.5.2-.7.2zM138.3 96.4c-.4 0-1.7 0-2.6.1-.2 0-.2-.2 0-.2 1.4-.2 1.7-.5 1.7-5.3v-8c-.3.5-1.3 2.7-2.5 5.4-.1 0-.2-.1-.2-.1 1.6-3.5 3.3-7.5 3.4-8.1.3 0 .9.1 1.3.1s.8 0 1.4-.1c.1 0 .1.2 0 .2-1.1.1-1.5.7-1.6 2.3v8.1c0 4.9.2 5.1 1.6 5.3.2 0 .2.3 0 .2-.7.1-2 .1-2.5.1m-7.1.6c-.1.2-.3.1-.2-.1-.2-.6-2.2-4.8-4.1-9-.8-1.7-1.4-2.9-2.1-4.3-.1 1.3-.2 5.7-.4 8.5h-.3c.1-2.8.2-7.7.3-9.2-.9-1.9-1.1-2.2-2.4-2.4-.2 0-.2-.3 0-.2.8.1 1.9.1 2.1.1h1.1c.1.3 1.5 3.3 3 6.3 1.8 3.7 3.6 7.6 3.6 7.6.3-.5 1.5-3 2.8-5.9.1 0 .2.1.2.1-1.5 3.7-3.4 7.9-3.6 8.5zm-7.2-.6c-.5 0-1.7.1-2.3.1-.2 0-.3-.2 0-.2 1.7-.3 2.2-1.4 2.3-4.3h.3c-.1 2.9.2 4 2.2 4.3.2 0 .2.3 0 .2-.6 0-1.9-.1-2.5-.1zM150.7 87.8c-.2-1.6-.7-2.3-2.3-2.3v-.2h2.2c0-.1.2-.1.1 0 .1.3.2 2 .2 2.5-.1.2-.2.2-.2 0m-.2 4.8c-.1-1.2-.3-1.3-1.5-1.4-.9-.1-2.1-.1-2.4-.1v-.2c.5 0 1.5 0 2.5-.1 1.1-.1 1.3-.1 1.4-1.2 0-.2.2-.1.2 0 0 .5-.1 1-.1 1.5 0 .4 0 1 .1 1.5-.1.2-.2.1-.2 0zm-4.6 3.9h-1.7c-.2 0-.1-.1 0-.2 1-.1 1.1-.3 1.1-3.7v-3.8c0-2.9 0-3.3-.9-3.4-.2 0-.2-.2 0-.2.5.1 1 .1 1.5.1s1.8-.1 2.4-.1v.2c-.6 0-1.3.1-1.7.1 0 .4-.1 1.5-.1 2.3v6.7c0 1.4.2 1.6 1.8 1.7v.2c-.6.1-1.8.1-2.4.1zm5.4 0c.1.1-.1.2-.2.1h-2.8v-.2c2 0 2.9-.6 3.3-2.1 0-.2.2-.1.1 0 0 .5-.3 1.9-.4 2.2zM166.2 96.4c-.3 0-1.2 0-1.8.1-.1 0-.1-.1 0-.2 1-.1 1.2-.4 1.2-3.6v-5.5c-.2.3-.9 1.8-1.8 3.7-.1 0-.1-.1-.2-.1 1.1-2.4 2.3-5.1 2.4-5.5.2 0 .6.1.9.1h1c.1 0 .1.1 0 .2-.7.1-1.1.5-1.1 1.6v5.6c0 3.4.1 3.5 1.1 3.7.2 0 .2.2 0 .2-.5-.3-1.5-.3-1.7-.3m-5 .4c0 .1-.2.1-.2 0-.2-.4-1.5-3.3-2.9-6.2-.5-1.1-1-2-1.5-3-.1.9-.2 3.9-.3 5.8h-.2c.1-1.9.2-5.3.2-6.3-.6-1.3-.8-1.5-1.7-1.6-.2 0-.1-.2 0-.2.6 0 1.3.1 1.5.1h.8c.1.2 1.1 2.3 2.1 4.3 1.2 2.6 2.5 5.2 2.5 5.2.2-.4 1.1-2.1 2-4.1.1 0 .1.1.2.1-1.1 2.6-2.4 5.5-2.5 5.9zm-5-.4c-.4 0-1.2.1-1.6.1-.2 0-.2-.1 0-.2 1.2-.2 1.5-.9 1.6-2.9h.2c0 2 .1 2.7 1.6 2.9.2 0 .2.2 0 .2-.5 0-1.4-.1-1.8-.1zM175.8 90.2h-.5c.8-.3 1.3-1.1 1.3-2.1 0-1.4-.8-2.6-2.5-2.6v-.2h.6c2.4 0 3.2 1.4 3.2 2.7-.1 1.1-.8 2-2.1 2.2m-.8 6.4v-.2c1.6 0 2.4-1.2 2.4-2.7 0-2.5-1.6-3.1-3.2-3.1v-.2c.3 0 .5-.1.8-.1 0 0 .2 0 .2-.1h.5c2 .1 3 1.6 3 3 .1 2-1.4 3.4-3.7 3.4zm-2.2-.1h-1.6c-.1 0-.2-.1 0-.2 1.1-.1 1.1-.3 1.1-3.7v-3.8c0-3.2-.1-3.3-.9-3.4-.2 0-.2-.2 0-.2h1.4c.4 0 .9-.1 1.3-.1v.2c-.2 0-.5.1-.6.1v4.8h.8v.2c-.3 0-.7 0-.8.1v2.1c0 3.1.4 3.7 1.6 3.7v.2c-.7.1-1.5 0-2.3 0zM188.5 87.8c-.2-1.6-.7-2.3-2.3-2.3v-.2h2.2c0-.1.2-.1.1 0 .1.3.2 2 .2 2.5 0 .2-.1.2-.2 0m-.2 4.8c-.1-1.2-.3-1.3-1.5-1.4-.9-.1-2.1-.1-2.4-.1v-.2c.5 0 1.5 0 2.5-.1 1.1-.1 1.3-.1 1.4-1.2 0-.2.2-.1.2 0 0 .5-.1 1-.1 1.5 0 .4 0 1 .1 1.5 0 .2-.1.1-.2 0zm-4.5 3.9h-1.7c-.2 0-.1-.1 0-.2 1-.1 1.1-.3 1.1-3.7v-3.8c0-2.9 0-3.3-.9-3.4-.2 0-.2-.2 0-.2.5.1 1 .1 1.5.1s1.8-.1 2.4-.1v.2c-.6 0-1.3.1-1.7.1 0 .4-.1 1.5-.1 2.3v6.7c0 1.4.2 1.6 1.8 1.7v.2c-.6.1-1.9.1-2.4.1zm5.4 0c.1.1-.1.2-.2.1h-2.8v-.2c2 0 2.9-.6 3.3-2.1 0-.2.2-.1.1 0 0 .5-.4 1.9-.4 2.2zM201.1 96.6c-1.9 0-2.8-1.3-5.2-5.6h-.4c-.2 0-.5 0-.6-.1v-.2c.1 0 .3.1.6.1 1.5 0 2.7-.6 2.7-2.5 0-1.7-.6-2.8-2.2-2.8v-.2c2.5 0 3.5 1.2 3.5 2.9 0 1.3-.8 2.2-2.2 2.6 1.3 2.5 3.3 5.5 4.3 5.5.2 0 .3-.1.5-.2s.3 0 .1.1c-.2.2-.5.4-1.1.4m-5-.1c-.7-.1-1.4-.1-1.8-.1-.3 0-1.2.1-1.7.1-.2 0-.2-.1 0-.2 1-.1 1.1-.3 1.1-3.7v-3.8c0-3.2-.2-3.3-.9-3.5-.2 0-.1-.2 0-.2.4.1.9.1 1.2.1.4 0 1.5-.1 2-.1v.2c-.4 0-1 .1-1.1.1.1.4 0 1.6 0 2.4v4.8c0 3.3.2 3.5 1.2 3.7.2.1.1.2 0 .2zM55.7 104l-.6.4c-.1-.2-.2-.3-.3-.4-.1-.1-.2-.1-.4-.1s-.4.1-.5.2c-.1.1-.2.3-.2.4 0 .2.2.4.5.6l.5.2c.4.2.7.4.9.6.2.2.3.5.3.8 0 .4-.1.8-.4 1.1-.3.3-.7.4-1.1.4-.4 0-.8-.1-1-.4-.3-.3-.4-.6-.5-1.1l.7-.2c0 .3.1.5.2.6.2.2.4.3.7.3.2 0 .4-.1.6-.2.2-.2.2-.3.2-.6v-.3c0-.1-.1-.2-.1-.2l-.2-.2c-.1-.1-.2-.1-.3-.2l-.5-.2c-.7-.3-1-.7-1-1.2 0-.4.1-.7.4-.9.3-.2.6-.4 1-.4.3.1.8.4 1.1 1M58.1 106.1v2h-.7v-4.9h.8c.4 0 .7 0 .9.1l.6.3c.3.3.4.6.4 1s-.1.8-.4 1.1c-.3.3-.7.4-1.2.4h-.4m0-.7h.3c.7 0 1-.3 1-.8s-.3-.8-1-.8h-.2v1.6zM64.1 103.9h-1.9v1.2h1.9v.7h-1.9v1.6h1.9v.7h-2.6v-4.9h2.6v.7M69.3 103.5v.9c-.4-.4-.9-.5-1.3-.5-.5 0-.9.2-1.3.5-.3.4-.5.8-.5 1.3s.2.9.5 1.3.8.5 1.3.5c.3 0 .5 0 .7-.1.1 0 .2-.1.3-.2l.3-.3v.9c-.4.2-.9.4-1.3.4-.7 0-1.3-.2-1.8-.7-.5-.5-.7-1.1-.7-1.8 0-.6.2-1.2.6-1.7.5-.6 1.2-.9 2-.9.4 0 .8.2 1.2.4M70.9 103.2h.7v4.9h-.7zM76.3 106.9h-2.1l-.5 1.2h-.8l2.4-5.2 2.3 5.2h-.8l-.5-1.2m-.3-.7l-.7-1.7-.8 1.7H76zM79.6 103.2v4.2H81v.7h-2.1v-4.9h.7M82.4 103.2h.7v4.9h-.7zM87.7 104l-.6.4c-.1-.2-.2-.3-.3-.4-.1-.1-.2-.1-.4-.1s-.4.1-.5.2c-.1.1-.2.3-.2.4 0 .2.2.4.5.6l.5.2c.4.2.7.4.9.6.2.2.3.5.3.8 0 .4-.1.8-.4 1.1-.3.3-.7.4-1.1.4-.4 0-.8-.1-1-.4-.3-.3-.4-.6-.5-1.1l.7-.2c0 .3.1.5.2.6.2.2.4.3.7.3.2 0 .4-.1.6-.2.2-.2.2-.3.2-.6v-.3c0-.1-.1-.2-.1-.2l-.2-.2c-.1-.1-.2-.1-.3-.2l-.5-.2c-.7-.3-1-.7-1-1.2 0-.4.1-.7.4-.9.3-.2.6-.4 1-.4.3.1.8.4 1.1 1M90.8 103.9v4.2H90v-4.2h-1.1v-.7h3v.7h-1.1M95.9 104l-.6.4c-.1-.2-.2-.3-.3-.4-.1-.1-.2-.1-.4-.1s-.4.1-.5.2c-.1.1-.2.3-.2.4 0 .2.2.4.5.6l.5.2c.4.2.7.4.9.6.2.2.3.5.3.8 0 .4-.1.8-.4 1.1-.3.3-.7.4-1.1.4-.4 0-.8-.1-1-.4-.3-.3-.4-.6-.5-1.1l.7-.2c0 .3.1.5.2.6.2.2.4.3.7.3.2 0 .4-.1.6-.2.2-.2.2-.3.2-.6v-.3c0-.1-.1-.2-.1-.2l-.2-.2c-.1-.1-.2-.1-.3-.2l-.5-.2c-.7-.3-1-.7-1-1.2 0-.4.1-.7.4-.9.3-.2.6-.4 1-.4.4.1.8.4 1.1 1M100.2 103.2h.7v4.9h-.7zM102.8 108.1v-5.2l3.5 3.7v-3.4h.7v5.2l-3.5-3.7v3.4h-.7M112.8 103.9v4.2h-.7v-4.2H111v-.7h2.9v.7h-1.1M116 105.1h2.1v-1.9h.7v4.9h-.7v-2.3H116v2.3h-.7v-4.9h.7v1.9M123.3 103.9h-1.9v1.2h1.9v.7h-1.9v1.6h1.9v.7h-2.7v-4.9h2.7v.7M130.4 106.9h-2.1l-.5 1.2h-.8l2.4-5.2 2.3 5.2h-.8l-.5-1.2m-.3-.7l-.7-1.7-.8 1.7h1.5zM134.6 106l1.5 2.1h-.9l-1.4-2h-.1v2h-.7v-4.9h.9c.6 0 1.1.1 1.4.4.3.3.5.6.5 1.1 0 .3-.1.6-.3.9-.3.2-.6.4-.9.4m-.9-.5h.2c.7 0 1-.3 1-.8s-.3-.7-1-.7h-.3v1.5zM138.8 103.9v4.2h-.7v-4.2h-1.2v-.7h3v.7h-1.1M143.6 105.6c0-.7.3-1.3.8-1.8s1.1-.7 1.8-.7 1.3.2 1.8.7c.5.5.7 1.1.7 1.8s-.3 1.3-.7 1.8c-.5.5-1.1.7-1.8.7-.6 0-1.2-.2-1.7-.7-.6-.3-.9-1-.9-1.8m.7.1c0 .5.2 1 .5 1.3.4.3.8.5 1.2.5.5 0 .9-.2 1.3-.5.4-.4.5-.8.5-1.3s-.2-1-.5-1.3c-.3-.4-.8-.5-1.3-.5s-.9.2-1.3.5c-.2.3-.4.7-.4 1.3zM152.7 103.9H151v1.2h1.6v.7H151v2.3h-.8v-4.9h2.5v.7M158.1 103.9v4.2h-.7v-4.2h-1.1v-.7h3v.7h-1.2M162.2 106l1.5 2.1h-.9l-1.4-2h-.1v2h-.7v-4.9h.9c.6 0 1.1.1 1.4.4.3.3.5.6.5 1.1 0 .3-.1.6-.3.9-.3.2-.6.4-.9.4m-.9-.5h.2c.7 0 1-.3 1-.8s-.3-.7-1-.7h-.3v1.5zM167.9 106.9h-2.1l-.5 1.2h-.8l2.4-5.2 2.3 5.2h-.8l-.5-1.2m-.3-.7l-.7-1.7-.8 1.7h1.5zM170.4 103.2l1.3 3.4 1.4-3.4h.8l-2.2 5.3-2.1-5.3h.8M177.8 103.9h-1.9v1.2h1.9v.7h-1.9v1.6h1.9v.7h-2.7v-4.9h2.7v.7M180.2 103.2v4.2h1.4v.7h-2.2v-4.9h.8"/></g></svg>